<svg width="170" height="180" viewBox="0 0 170 180" fill="none" xmlns="http://www.w3.org/2000/svg">
<rect width="170" height="180" fill="#E5E5E5"/>
<rect width="170" height="180" fill="#353637"/>
<line x1="75.8847" y1="20.2048" x2="26.2048" y2="161.115" stroke="url(#paint0_linear)" stroke-width="16" stroke-linecap="square" stroke-linejoin="round"/>
<line x1="8" y1="-8" x2="157.412" y2="-8" transform="matrix(0.332504 0.943102 0.943102 -0.332504 71.9999 10)" stroke="url(#paint1_linear)" stroke-width="16" stroke-linecap="square" stroke-linejoin="round"/>
<line x1="24" y1="158" x2="118" y2="158" stroke="url(#paint2_linear)" stroke-width="16" stroke-linecap="square" stroke-linejoin="round"/>
<line x1="6" y1="-6" x2="164" y2="-6" transform="matrix(0.332504 0.943102 0.943102 -0.332504 83.32 6)" stroke="#353637" stroke-width="12" stroke-linecap="square" stroke-linejoin="round"/>
<line x1="65.1836" y1="8.65363" x2="11.6505" y2="160.493" stroke="#353637" stroke-width="12" stroke-linecap="square" stroke-linejoin="round"/>
<line x1="105.453" y1="62.378" x2="69.4062" y2="164.62" stroke="#353637" stroke-width="10" stroke-linecap="square" stroke-linejoin="round"/>
<line x1="122.753" y1="89.378" x2="96.0163" y2="165.213" stroke="#353637" stroke-width="10" stroke-linecap="square" stroke-linejoin="round"/>
<line x1="118.257" y1="64.2048" x2="83.8723" y2="161.731" stroke="#00F6F6" stroke-width="16" stroke-linecap="square" stroke-linejoin="round"/>
<line x1="8" y1="-8" x2="160" y2="-8" transform="matrix(0.332504 0.943102 0.943102 -0.332504 97.96 8)" stroke="#00F6F6" stroke-width="16" stroke-linecap="square" stroke-linejoin="round"/>
<line x1="6" y1="-6" x2="159" y2="-6" transform="matrix(0.332504 0.943102 0.943102 -0.332504 111.4 10)" stroke="#353637" stroke-width="12" stroke-linecap="square" stroke-linejoin="round"/>
<line x1="20" y1="170" x2="151" y2="170" stroke="#353637" stroke-width="8" stroke-linecap="square" stroke-linejoin="round"/>
<line x1="47" y1="10" x2="119" y2="10" stroke="#353637" stroke-width="8" stroke-linecap="square" stroke-linejoin="round"/>
<defs>
<linearGradient id="paint0_linear" x1="43.5" y1="88" x2="42.5569" y2="87.6675" gradientUnits="userSpaceOnUse">
<stop stop-color="#FF408B"/>
<stop offset="1" stop-color="#00F6F6"/>
</linearGradient>
<linearGradient id="paint1_linear" x1="82.7058" y1="0" x2="82.7058" y2="1" gradientUnits="userSpaceOnUse">
<stop stop-color="#FF408B"/>
<stop offset="1" stop-color="#00F6F6"/>
</linearGradient>
<linearGradient id="paint2_linear" x1="71" y1="166" x2="71" y2="167" gradientUnits="userSpaceOnUse">
<stop stop-color="#FF408B"/>
<stop offset="1" stop-color="#00F6F6"/>
</linearGradient>
</defs>
</svg>
